<svg width="1600" height="900" viewBox="0 0 1600 900" fill="none" xmlns="http://www.w3.org/2000/svg">
  <defs>
    <linearGradient id="bg" x1="120" y1="60" x2="1440" y2="840" gradientUnits="userSpaceOnUse">
      <stop offset="0" stop-color="#07111B"/>
      <stop offset="0.55" stop-color="#0B2230"/>
      <stop offset="1" stop-color="#102E2B"/>
    </linearGradient>
    <linearGradient id="panel" x1="250" y1="150" x2="1240" y2="700" gradientUnits="userSpaceOnUse">
      <stop offset="0" stop-color="#0F2233" stop-opacity="0.88"/>
      <stop offset="1" stop-color="#132A36" stop-opacity="0.72"/>
    </linearGradient>
    <linearGradient id="accentA" x1="220" y1="205" x2="470" y2="205" gradientUnits="userSpaceOnUse">
      <stop offset="0" stop-color="#20C997"/>
      <stop offset="1" stop-color="#8CE99A"/>
    </linearGradient>
    <linearGradient id="accentB" x1="0" y1="0" x2="1" y2="1">
      <stop offset="0" stop-color="#4DD4FF"/>
      <stop offset="1" stop-color="#9BE15D"/>
    </linearGradient>
    <linearGradient id="accentC" x1="0" y1="0" x2="1" y2="1">
      <stop offset="0" stop-color="#FFD166"/>
      <stop offset="1" stop-color="#FF8C42"/>
    </linearGradient>
    <linearGradient id="contour" x1="930" y1="280" x2="1360" y2="700" gradientUnits="userSpaceOnUse">
      <stop offset="0" stop-color="#50E3C2"/>
      <stop offset="1" stop-color="#3AA6FF"/>
    </linearGradient>
    <filter id="glow" x="-50%" y="-50%" width="200%" height="200%">
      <feGaussianBlur stdDeviation="12" result="blur"/>
      <feMerge>
        <feMergeNode in="blur"/>
        <feMergeNode in="SourceGraphic"/>
      </feMerge>
    </filter>
  </defs>

  <rect width="1600" height="900" rx="36" fill="url(#bg)"/>

  <g opacity="0.2">
    <path d="M0 160H1600" stroke="#5EEAD4" stroke-opacity="0.2"/>
    <path d="M0 280H1600" stroke="#5EEAD4" stroke-opacity="0.12"/>
    <path d="M0 400H1600" stroke="#5EEAD4" stroke-opacity="0.1"/>
    <path d="M0 520H1600" stroke="#5EEAD4" stroke-opacity="0.1"/>
    <path d="M0 640H1600" stroke="#5EEAD4" stroke-opacity="0.12"/>
    <path d="M0 760H1600" stroke="#5EEAD4" stroke-opacity="0.2"/>
    <path d="M180 0V900" stroke="#5EEAD4" stroke-opacity="0.12"/>
    <path d="M420 0V900" stroke="#5EEAD4" stroke-opacity="0.08"/>
    <path d="M660 0V900" stroke="#5EEAD4" stroke-opacity="0.08"/>
    <path d="M900 0V900" stroke="#5EEAD4" stroke-opacity="0.08"/>
    <path d="M1140 0V900" stroke="#5EEAD4" stroke-opacity="0.08"/>
    <path d="M1380 0V900" stroke="#5EEAD4" stroke-opacity="0.12"/>
  </g>

  <circle cx="1380" cy="160" r="180" fill="#20C997" fill-opacity="0.08"/>
  <circle cx="220" cy="760" r="200" fill="#4DD4FF" fill-opacity="0.06"/>
  <circle cx="1270" cy="720" r="230" fill="#FFD166" fill-opacity="0.05"/>

  <rect x="130" y="105" width="1340" height="690" rx="28" fill="url(#panel)" stroke="#80FFDB" stroke-opacity="0.16"/>

  <g>
    <text x="220" y="212" fill="url(#accentA)" font-family="Arial, Helvetica, sans-serif" font-size="26" font-weight="700" letter-spacing="3">
      NOTEBOOK-FIRST AI OPTIMIZATION LAB
    </text>
    <text x="220" y="300" fill="#F8FAFC" font-family="Arial, Helvetica, sans-serif" font-size="74" font-weight="700">
      SST-2 -> BoW -> Logistic Regression
    </text>
    <text x="220" y="380" fill="#F8FAFC" font-family="Arial, Helvetica, sans-serif" font-size="74" font-weight="700">
      SGD, L1 Sparsity, and Loss Geometry
    </text>
    <text x="220" y="452" fill="#B7C9D3" font-family="Arial, Helvetica, sans-serif" font-size="30" font-weight="500">
      A compact PyTorch project that connects text preprocessing, stable loss design,
    </text>
    <text x="220" y="494" fill="#B7C9D3" font-family="Arial, Helvetica, sans-serif" font-size="30" font-weight="500">
      hyperparameter sweeps, regularization, and optimizer trajectories on convex
    </text>
    <text x="220" y="536" fill="#B7C9D3" font-family="Arial, Helvetica, sans-serif" font-size="30" font-weight="500">
      and non-convex surfaces.
    </text>
  </g>

  <g>
    <rect x="220" y="610" width="165" height="58" rx="16" fill="#0D2B35" stroke="#20C997" stroke-opacity="0.45"/>
    <text x="250" y="648" fill="#DDFCF2" font-family="Arial, Helvetica, sans-serif" font-size="24" font-weight="700">SST-2</text>

    <rect x="402" y="610" width="165" height="58" rx="16" fill="#0D2B35" stroke="#4DD4FF" stroke-opacity="0.45"/>
    <text x="432" y="648" fill="#E0F7FF" font-family="Arial, Helvetica, sans-serif" font-size="24" font-weight="700">BoW</text>

    <rect x="584" y="610" width="210" height="58" rx="16" fill="#0D2B35" stroke="#FFD166" stroke-opacity="0.45"/>
    <text x="614" y="648" fill="#FFF6D8" font-family="Arial, Helvetica, sans-serif" font-size="24" font-weight="700">LogReg + BCE</text>

    <rect x="812" y="610" width="176" height="58" rx="16" fill="#0D2B35" stroke="#8CE99A" stroke-opacity="0.45"/>
    <text x="842" y="648" fill="#ECFCE6" font-family="Arial, Helvetica, sans-serif" font-size="24" font-weight="700">SGD + L1</text>

    <rect x="1006" y="610" width="240" height="58" rx="16" fill="#0D2B35" stroke="#FF8C42" stroke-opacity="0.45"/>
    <text x="1036" y="648" fill="#FFF0E6" font-family="Arial, Helvetica, sans-serif" font-size="24" font-weight="700">Bowl + Camel</text>
  </g>

  <g opacity="0.88">
    <path d="M390 639H402" stroke="#5EEAD4" stroke-width="3" stroke-linecap="round"/>
    <path d="M572 639H584" stroke="#5EEAD4" stroke-width="3" stroke-linecap="round"/>
    <path d="M800 639H812" stroke="#5EEAD4" stroke-width="3" stroke-linecap="round"/>
    <path d="M994 639H1006" stroke="#5EEAD4" stroke-width="3" stroke-linecap="round"/>
  </g>

  <g>
    <rect x="985" y="175" width="365" height="255" rx="26" fill="#0B1D29" stroke="#79F2C0" stroke-opacity="0.18"/>
    <text x="1020" y="222" fill="#D9F5EA" font-family="Arial, Helvetica, sans-serif" font-size="24" font-weight="700">
      Hyperparameter sweep
    </text>

    <rect x="1024" y="255" width="125" height="125" rx="18" fill="#103243"/>
    <rect x="1166" y="255" width="125" height="125" rx="18" fill="#103243"/>
    <rect x="1024" y="396" width="125" height="125" rx="18" fill="#103243"/>
    <rect x="1166" y="396" width="125" height="125" rx="18" fill="#103243"/>

    <rect x="1040" y="271" width="93" height="93" rx="12" fill="#1B4655"/>
    <rect x="1040" y="271" width="31" height="31" rx="8" fill="#1DC997"/>
    <rect x="1071" y="271" width="31" height="31" rx="8" fill="#53D8FF"/>
    <rect x="1102" y="271" width="31" height="31" rx="8" fill="#9BE15D"/>
    <rect x="1040" y="302" width="31" height="31" rx="8" fill="#FFD166"/>
    <rect x="1071" y="302" width="31" height="31" rx="8" fill="#4DD4FF"/>
    <rect x="1102" y="302" width="31" height="31" rx="8" fill="#20C997"/>
    <rect x="1040" y="333" width="31" height="31" rx="8" fill="#FF8C42"/>
    <rect x="1071" y="333" width="31" height="31" rx="8" fill="#FFD166"/>
    <rect x="1102" y="333" width="31" height="31" rx="8" fill="#8CE99A"/>

    <path d="M1184 350C1202 304 1228 284 1256 272C1266 268 1278 266 1290 266" stroke="url(#accentB)" stroke-width="8" stroke-linecap="round" filter="url(#glow)"/>
    <path d="M1184 490C1206 468 1228 454 1252 446C1264 442 1278 440 1290 440" stroke="url(#accentC)" stroke-width="8" stroke-linecap="round" filter="url(#glow)"/>
    <path d="M1184 338L1208 322L1236 344L1266 294L1290 308" stroke="#DFF9F0" stroke-width="3" stroke-linecap="round"/>
    <path d="M1184 478L1208 450L1236 470L1266 430L1290 444" stroke="#FFF5E0" stroke-width="3" stroke-linecap="round"/>
    <text x="1184" y="536" fill="#93B7C4" font-family="Arial, Helvetica, sans-serif" font-size="16" font-weight="600">
      accuracy / loss / convergence
    </text>
  </g>

  <g>
    <rect x="990" y="468" width="365" height="245" rx="26" fill="#0B1D29" stroke="#79F2C0" stroke-opacity="0.18"/>
    <text x="1020" y="515" fill="#D9F5EA" font-family="Arial, Helvetica, sans-serif" font-size="24" font-weight="700">
      Optimizer trajectories
    </text>

    <path d="M1045 668C1084 612 1128 596 1166 624C1204 652 1248 642 1300 560" stroke="url(#contour)" stroke-width="4" opacity="0.9"/>
    <path d="M1038 650C1080 590 1124 570 1166 596C1212 624 1254 614 1314 526" stroke="#71E1C0" stroke-opacity="0.45" stroke-width="2"/>
    <path d="M1066 688C1100 642 1138 626 1170 646C1202 666 1242 660 1284 598" stroke="#4DD4FF" stroke-opacity="0.35" stroke-width="2"/>

    <path d="M1075 615C1090 590 1115 575 1145 575C1175 575 1202 590 1217 615C1202 640 1175 655 1145 655C1115 655 1090 640 1075 615Z" stroke="#1FC79A" stroke-opacity="0.35"/>
    <path d="M1110 615C1120 598 1135 588 1152 588C1169 588 1185 598 1194 615C1185 632 1169 642 1152 642C1135 642 1120 632 1110 615Z" stroke="#1FC79A" stroke-opacity="0.35"/>
    <path d="M1230 583C1248 552 1280 538 1314 548C1328 552 1342 560 1350 572C1342 596 1328 610 1314 616C1280 628 1248 614 1230 583Z" stroke="#FFD166" stroke-opacity="0.4"/>

    <circle cx="1054" cy="667" r="8" fill="#F8FAFC"/>
    <circle cx="1302" cy="560" r="10" fill="#20C997"/>
    <circle cx="1326" cy="573" r="10" fill="#FF8C42"/>

    <text x="1022" y="694" fill="#93B7C4" font-family="Arial, Helvetica, sans-serif" font-size="16" font-weight="600">
      bowl and six-hump camel landscapes
    </text>
  </g>

  <text x="220" y="742" fill="#7CCFB7" font-family="Arial, Helvetica, sans-serif" font-size="18" font-weight="700" letter-spacing="2">
    STABLE LOSS  /  SPARSITY  /  HYPERPARAMETER SWEEPS  /  GEOMETRY AWARE OPTIMIZATION
  </text>
</svg>
